<svg width="24" height="24" viewBox="0 0 24 24" fill="none" xmlns="http://www.w3.org/2000/svg">
<g id="fi-rs-tree">
<path id="Vector" d="M22.4001 21.9997L18.2661 15.9997H21.0851L16.8001 9.99967H19.9551L14.0551 1.07068C13.8214 0.741474 13.5118 0.473357 13.1526 0.288975C12.7934 0.104592 12.3951 0.00935985 11.9914 0.0113212C11.5877 0.0132825 11.1903 0.11238 10.8329 0.300244C10.4756 0.488107 10.1686 0.759219 9.9381 1.09068L4.0441 9.99967H7.2001L2.9121 15.9997H5.7311L1.6001 21.9997H11.0001V23.9997H13.0001V21.9997H22.4001ZM8.1601 15.9997H13.4111L12.0331 13.9997H6.8001L9.6581 9.99967H11.8861L10.4561 7.99967H7.7651L11.5891 2.21468C11.6323 2.14775 11.6912 2.09239 11.7607 2.05342C11.8302 2.01444 11.9082 1.99304 11.9878 1.99107C12.0675 1.9891 12.1464 2.00662 12.2177 2.0421C12.289 2.07759 12.3506 2.12997 12.3971 2.19468L16.2351 7.99967H12.9141L17.2001 13.9997H14.4621L18.6001 19.9997H5.4001L8.1601 15.9997Z" fill="white"/>
</g>
</svg>
