<svg width="45" height="45" viewBox="0 0 45 45" fill="none" xmlns="http://www.w3.org/2000/svg">
<g id="Group 5">
<rect id="Rectangle 37" width="45" height="45" rx="5" fill="#D9D9D9" fill-opacity="0.9"/>
<path id="Vector" d="M31.3333 21.3333H24.6667V14.6667C24.6667 14.2246 24.4911 13.8007 24.1785 13.4882C23.8659 13.1756 23.442 13 23 13C22.558 13 22.134 13.1756 21.8215 13.4882C21.5089 13.8007 21.3333 14.2246 21.3333 14.6667V21.3333H14.6667C14.2246 21.3333 13.8007 21.5089 13.4882 21.8215C13.1756 22.134 13 22.558 13 23C13 23.442 13.1756 23.8659 13.4882 24.1785C13.8007 24.4911 14.2246 24.6667 14.6667 24.6667H21.3333V31.3333C21.3333 31.7754 21.5089 32.1993 21.8215 32.5118C22.134 32.8244 22.558 33 23 33C23.442 33 23.8659 32.8244 24.1785 32.5118C24.4911 32.1993 24.6667 31.7754 24.6667 31.3333V24.6667H31.3333C31.7754 24.6667 32.1993 24.4911 32.5118 24.1785C32.8244 23.8659 33 23.442 33 23C33 22.558 32.8244 22.134 32.5118 21.8215C32.1993 21.5089 31.7754 21.3333 31.3333 21.3333Z" fill="#507D29"/>
</g>
</svg>
