<svg width="25" height="25" viewBox="0 0 25 25" fill="none" xmlns="http://www.w3.org/2000/svg">
<g id="AddProfile">
<circle id="Profile" cx="12.5" cy="12.5" r="12.5" fill="white"/>
<path id="Vector" d="M16.9643 11.6072H13.3928V8.03574C13.3928 7.79894 13.2988 7.57184 13.1313 7.4044C12.9639 7.23695 12.7368 7.14288 12.5 7.14288C12.2632 7.14288 12.0361 7.23695 11.8686 7.4044C11.7012 7.57184 11.6071 7.79894 11.6071 8.03574V11.6072H8.03568C7.79888 11.6072 7.57178 11.7012 7.40433 11.8687C7.23689 12.0361 7.14282 12.2632 7.14282 12.5C7.14282 12.7368 7.23689 12.9639 7.40433 13.1314C7.57178 13.2988 7.79888 13.3929 8.03568 13.3929H11.6071V16.9643C11.6071 17.2011 11.7012 17.4282 11.8686 17.5957C12.0361 17.7631 12.2632 17.8572 12.5 17.8572C12.7368 17.8572 12.9639 17.7631 13.1313 17.5957C13.2988 17.4282 13.3928 17.2011 13.3928 16.9643V13.3929H16.9643C17.2011 13.3929 17.4282 13.2988 17.5956 13.1314C17.763 12.9639 17.8571 12.7368 17.8571 12.5C17.8571 12.2632 17.763 12.0361 17.5956 11.8687C17.4282 11.7012 17.2011 11.6072 16.9643 11.6072Z" fill="#507D29"/>
</g>
</svg>
