<svg width="24" height="24" viewBox="0 0 24 24" fill="none" xmlns="http://www.w3.org/2000/svg">
<g id="fi-rr-angle-small-right">
<path id="Vector" d="M8.6002 9.88001L13.1902 5.29001C13.3776 5.10376 13.631 4.99921 13.8952 4.99921C14.1594 4.99921 14.4128 5.10376 14.6002 5.29001C14.6939 5.38297 14.7683 5.49357 14.8191 5.61543C14.8699 5.73729 14.896 5.86799 14.896 6.00001C14.896 6.13202 14.8699 6.26272 14.8191 6.38458C14.7683 6.50644 14.6939 6.61704 14.6002 6.71001L10.0002 11.29C9.90647 11.383 9.83207 11.4936 9.78131 11.6154C9.73054 11.7373 9.7044 11.868 9.7044 12C9.7044 12.132 9.73054 12.2627 9.78131 12.3846C9.83207 12.5064 9.90647 12.617 10.0002 12.71L14.6002 17.29C14.7885 17.477 14.8948 17.7311 14.8958 17.9965C14.8967 18.2618 14.7922 18.5167 14.6052 18.705C14.4182 18.8933 14.1641 18.9996 13.8987 19.0006C13.6334 19.0015 13.3785 18.897 13.1902 18.71L8.6002 14.12C8.03839 13.5575 7.72284 12.795 7.72284 12C7.72284 11.205 8.03839 10.4425 8.6002 9.88001Z" fill="#121212"/>
</g>
</svg>
