<svg width="120" height="120" viewBox="0 0 120 120" fill="none" xmlns="http://www.w3.org/2000/svg">
<g id="Profile Picture">
<circle id="Profile" cx="60" cy="60" r="60" fill="#313131"/>
<path id="Vector" d="M60.3104 58.2403C64.1296 58.2403 67.863 57.1483 71.0386 55.1023C74.2142 53.0563 76.6892 50.1482 78.1508 46.7458C79.6123 43.3434 79.9948 39.5995 79.2497 35.9876C78.5046 32.3756 76.6654 29.0578 73.9648 26.4537C71.2642 23.8497 67.8235 22.0763 64.0776 21.3578C60.3318 20.6393 56.4491 21.0081 52.9206 22.4174C49.3921 23.8267 46.3762 26.2133 44.2544 29.2754C42.1325 32.3374 41 35.9375 41 39.6202C41.0051 44.557 43.0412 49.2903 46.6615 52.7812C50.2818 56.2721 55.1905 58.2354 60.3104 58.2403ZM60.3104 27.2067C62.8565 27.2067 65.3455 27.9348 67.4625 29.2988C69.5796 30.6628 71.2296 32.6015 72.204 34.8698C73.1783 37.138 73.4333 39.6339 72.9366 42.0419C72.4398 44.4499 71.2137 46.6618 69.4133 48.3978C67.6129 50.1339 65.3191 51.3161 62.8219 51.7951C60.3246 52.2741 57.7362 52.0283 55.3839 51.0887C53.0315 50.1492 51.0209 48.5581 49.6064 46.5167C48.1918 44.4753 47.4368 42.0753 47.4368 39.6202C47.4368 36.3279 48.7931 33.1705 51.2074 30.8425C53.6216 28.5146 56.8961 27.2067 60.3104 27.2067Z" fill="white"/>
<path id="Vector_2" d="M59.9655 64.4492C52.286 64.4574 44.9235 67.4027 39.4932 72.6388C34.063 77.875 31.0085 84.9744 31 92.3794C31 93.2025 31.3391 93.9918 31.9426 94.5738C32.5462 95.1558 33.3648 95.4828 34.2184 95.4828C35.072 95.4828 35.8906 95.1558 36.4941 94.5738C37.0977 93.9918 37.4368 93.2025 37.4368 92.3794C37.4368 86.618 39.8103 81.0925 44.0353 77.0186C48.2603 72.9446 53.9905 70.6559 59.9655 70.6559C65.9405 70.6559 71.6708 72.9446 75.8957 77.0186C80.1207 81.0925 82.4943 86.618 82.4943 92.3794C82.4943 93.2025 82.8333 93.9918 83.4369 94.5738C84.0405 95.1558 84.8591 95.4828 85.7126 95.4828C86.5662 95.4828 87.3848 95.1558 87.9884 94.5738C88.592 93.9918 88.931 93.2025 88.931 92.3794C88.9225 84.9744 85.8681 77.875 80.4378 72.6388C75.0076 67.4027 67.645 64.4574 59.9655 64.4492Z" fill="white"/>
</g>
</svg>
