<svg width="22" height="25" viewBox="0 0 22 25" fill="none" xmlns="http://www.w3.org/2000/svg">
<path id="Vector" d="M13 13C13.0016 13.3515 12.9105 13.6971 12.736 14.0022C12.5615 14.3072 12.3097 14.5609 12.0059 14.7377C11.7021 14.9144 11.3571 15.008 11.0057 15.009C10.6542 15.01 10.3087 14.9184 10.004 14.7434C9.69919 14.5683 9.44593 14.3161 9.26968 14.012C9.09343 13.7079 9.00043 13.3628 9.00003 13.0113C8.99963 12.6599 9.09185 12.3145 9.2674 12.01C9.44295 11.7056 9.69564 11.4527 10 11.277V7C10 6.73478 10.1054 6.48043 10.2929 6.29289C10.4804 6.10536 10.7348 6 11 6C11.2652 6 11.5196 6.10536 11.7071 6.29289C11.8946 6.48043 12 6.73478 12 7V11.277C12.3031 11.4513 12.5551 11.7023 12.7306 12.0047C12.9061 12.3071 12.999 12.6503 13 13ZM19.06 5.539C20.517 7.10778 21.4845 9.06766 21.8439 11.1783C22.2033 13.2889 21.9389 15.4586 21.0832 17.4212C20.2275 19.3837 18.8177 21.0539 17.0266 22.2269C15.2355 23.3999 13.141 24.0247 11 24.0247C8.85899 24.0247 6.76451 23.3999 4.97342 22.2269C3.18232 21.0539 1.77248 19.3837 0.916772 17.4212C0.0610653 15.4586 -0.203304 13.2889 0.156085 11.1783C0.515474 9.06766 1.483 7.10778 2.94001 5.539L2.26801 4.792C1.86085 4.93532 1.43161 5.00573 1.00001 5C0.73479 5 0.480436 4.89464 0.292899 4.70711C0.105363 4.51957 6.0885e-06 4.26522 6.0885e-06 4C6.0885e-06 3.73478 0.105363 3.48043 0.292899 3.29289C0.480436 3.10536 0.73479 3 1.00001 3C1.78501 3 2.00001 2.785 2.00001 2C2.00001 1.73478 2.10536 1.48043 2.2929 1.29289C2.48044 1.10536 2.73479 1 3.00001 1C3.26522 1 3.51958 1.10536 3.70711 1.29289C3.89465 1.48043 4.00001 1.73478 4.00001 2C4.00583 2.48663 3.91048 2.96916 3.72001 3.417L4.42601 4.201C6.04811 2.98027 7.97831 2.23576 10 2.051V1C10 0.734784 10.1054 0.48043 10.2929 0.292893C10.4804 0.105357 10.7348 0 11 0C11.2652 0 11.5196 0.105357 11.7071 0.292893C11.8946 0.48043 12 0.734784 12 1V2.051C14.0216 2.23546 15.9518 2.97963 17.574 4.2L18.28 3.416C18.0897 2.96847 17.9943 2.48629 18 2C18 1.73478 18.1054 1.48043 18.2929 1.29289C18.4804 1.10536 18.7348 1 19 1C19.2652 1 19.5196 1.10536 19.7071 1.29289C19.8946 1.48043 20 1.73478 20 2C20 2.785 20.215 3 21 3C21.2652 3 21.5196 3.10536 21.7071 3.29289C21.8946 3.48043 22 3.73478 22 4C22 4.26522 21.8946 4.51957 21.7071 4.70711C21.5196 4.89464 21.2652 5 21 5C20.5684 5.00573 20.1392 4.93532 19.732 4.792L19.06 5.539ZM20 13C20 11.22 19.4722 9.47991 18.4832 7.99987C17.4943 6.51983 16.0887 5.36627 14.4442 4.68508C12.7996 4.0039 10.99 3.82567 9.24419 4.17293C7.49836 4.5202 5.89472 5.37737 4.63604 6.63604C3.37737 7.89471 2.52021 9.49836 2.17294 11.2442C1.82567 12.99 2.0039 14.7996 2.68509 16.4442C3.36628 18.0887 4.51983 19.4943 5.99987 20.4832C7.47992 21.4722 9.21997 22 11 22C13.3861 21.9974 15.6738 21.0483 17.361 19.361C19.0483 17.6738 19.9974 15.3861 20 13Z" fill="white"/>
</svg>
