<svg width="25" height="25" viewBox="0 0 25 25" fill="none" xmlns="http://www.w3.org/2000/svg">
<g id="Profile Picture">
<circle id="Profile" cx="12.5" cy="12.5" r="12.5" fill="white"/>
<path id="Vector" d="M12.5647 12.1334C13.3604 12.1334 14.1382 11.9059 14.7998 11.4796C15.4614 11.0534 15.977 10.4475 16.2815 9.73871C16.586 9.02988 16.6657 8.2499 16.5104 7.49741C16.3552 6.74492 15.972 6.05371 15.4094 5.51119C14.8468 4.96868 14.13 4.59922 13.3496 4.44954C12.5692 4.29986 11.7603 4.37668 11.0252 4.67029C10.2901 4.9639 9.6618 5.4611 9.21974 6.09903C8.77769 6.73697 8.54175 7.48697 8.54175 8.2542C8.54281 9.28272 8.967 10.2688 9.72123 10.9961C10.4755 11.7233 11.4981 12.1324 12.5647 12.1334ZM12.5647 5.66807C13.0952 5.66807 13.6137 5.81974 14.0548 6.10391C14.4958 6.38808 14.8396 6.79198 15.0426 7.26453C15.2456 7.73709 15.2987 8.25707 15.1952 8.75873C15.0917 9.26039 14.8363 9.7212 14.4612 10.0829C14.0861 10.4446 13.6082 10.6909 13.088 10.7906C12.5677 10.8904 12.0285 10.8392 11.5384 10.6435C11.0483 10.4477 10.6294 10.1163 10.3347 9.69098C10.04 9.2657 9.88274 8.76569 9.88274 8.2542C9.88274 7.56832 10.1653 6.91052 10.6683 6.42553C11.1713 5.94054 11.8534 5.66807 12.5647 5.66807Z" fill="#507D29"/>
<path id="Vector_2" d="M12.4927 13.4269C10.8928 13.4286 9.35897 14.0422 8.22767 15.1331C7.09637 16.2239 6.46003 17.703 6.45825 19.2457C6.45825 19.4172 6.52889 19.5816 6.65464 19.7029C6.78038 19.8241 6.95092 19.8922 7.12875 19.8922C7.30658 19.8922 7.47712 19.8241 7.60286 19.7029C7.72861 19.5816 7.79925 19.4172 7.79925 19.2457C7.79925 18.0454 8.29374 16.8942 9.17394 16.0455C10.0541 15.1968 11.2479 14.7199 12.4927 14.7199C13.7375 14.7199 14.9313 15.1968 15.8115 16.0455C16.6917 16.8942 17.1862 18.0454 17.1862 19.2457C17.1862 19.4172 17.2569 19.5816 17.3826 19.7029C17.5083 19.8241 17.6789 19.8922 17.8567 19.8922C18.0345 19.8922 18.2051 19.8241 18.3308 19.7029C18.4566 19.5816 18.5272 19.4172 18.5272 19.2457C18.5254 17.703 17.8891 16.2239 16.7578 15.1331C15.6265 14.0422 14.0926 13.4286 12.4927 13.4269Z" fill="#507D29"/>
</g>
</svg>
